# xmcd
#
# Track frame offsets: 
#        150
#        22376
#        40078
#        59749
#        81113
#        98287
#        114090
#        135022
#        150709
#        167320
#        188331
#        202988
#        218259
#        235602
#        259939
#        274757
#        294384
#
# Disc length: 4164 seconds
#
# Revision: 0
# Processed by: cddbd v1.5.2PL0 Copyright (c) Steve Scherf et al.
# Submitted via: ExactAudioCopy v0.99pb5
#
DISCID=ce104211
DTITLE=Various Artist - Baladas en Español Exitos 99
DYEAR=1999
DGENRE=Ballad
TTITLE0=Noelia - Tu
TTITLE1=Natalia Oreiro - Me muero de amor
TTITLE2=Amaury Gutierrez - Yo sé que es mentira
TTITLE3=Jennifer Lopez and Marc Anthony - No me ames
TTITLE4=Maná - Se me olvido otra vez
TTITLE5=Alberto Plaza - Bandido
TTITLE6=Ricardo Montaner - El poder de tu amor
TTITLE7=Jerry Rivera - Ese
TTITLE8=Cristian Castro - Mi vida sin tu amor
TTITLE9=Santana and Maná - Corazón Espinado
TTITLE10=Enrique Iglesias - Esperanza
TTITLE11=Luis Miguel - O tu o ninguna
TTITLE12=Libido - Como un perro
TTITLE13=Karametade - Toda mujer
TTITLE14=Shakira - Inevitable
TTITLE15=Chayanne - Pienso en ti
TTITLE16=Andrés Calamaro - Te quiero igual
EXTD=
EXTT0=
EXTT1=
EXTT2=
EXTT3=
EXTT4=
EXTT5=
EXTT6=
EXTT7=
EXTT8=
EXTT9=
EXTT10=
EXTT11=
EXTT12=
EXTT13=
EXTT14=
EXTT15=
EXTT16=
PLAYORDER=
